<svg width="27" height="26" viewBox="0 0 27 26" fill="none" xmlns="http://www.w3.org/2000/svg">
<path fill-rule="evenodd" clip-rule="evenodd" d="M21.1603 3.10714L21.3813 4.4369C22.079 4.32095 22.7942 4.48689 23.3695 4.89823C23.9448 5.30957 24.3331 5.93261 24.4491 6.63028L26.6351 19.7832C26.7511 20.4809 26.5851 21.196 26.1738 21.7714C25.7624 22.3467 25.1394 22.735 24.4417 22.851L6.02764 25.9114C5.32996 26.0273 4.6148 25.8614 4.03948 25.4501C3.46416 25.0387 3.07581 24.4157 2.95985 23.718L0.773852 10.5651C0.545415 9.19061 1.43645 7.76118 2.66182 7.18042L16.443 0.64186C16.9091 0.420645 17.4203 0.310673 17.9362 0.320602C18.4521 0.330531 18.9586 0.46009 19.4159 0.699078C19.8732 0.938065 20.2688 1.27995 20.5715 1.69782C20.8742 2.11569 21.0758 2.59813 21.1603 3.10714ZM17.9801 12.4361C17.4568 12.5231 16.9896 12.8143 16.6811 13.2458C16.3726 13.6773 16.2481 14.2137 16.3351 14.7369C16.422 15.2602 16.7133 15.7275 17.1448 16.036C17.5763 16.3445 18.1126 16.4689 18.6359 16.382C19.1592 16.295 19.6264 16.0038 19.9349 15.5723C20.2434 15.1408 20.3679 14.6044 20.2809 14.0811C20.194 13.5579 19.9027 13.0906 19.4712 12.7821C19.0397 12.4736 18.5034 12.3491 17.9801 12.4361ZM18.5297 3.54434C18.5144 3.45149 18.4795 3.36294 18.4275 3.28452C18.3754 3.2061 18.3074 3.13959 18.2278 3.08936C18.1482 3.03913 18.0589 3.00632 17.9657 2.9931C17.8725 2.97987 17.7776 2.98652 17.6872 3.01262L17.5854 3.05115L11.0431 6.1551L18.7507 4.8741L18.5297 3.54434Z" fill="#FD80BB"/>
</svg>
