<svg width="29" height="29" viewBox="0 0 29 29" fill="none" xmlns="http://www.w3.org/2000/svg">
<path fill-rule="evenodd" clip-rule="evenodd" d="M12.8793 1.42243C13.3513 0.951061 13.9828 0.6737 14.6492 0.645068C15.3156 0.616436 15.9686 0.838612 16.4793 1.26776L16.6499 1.42376L19.1833 3.95576H22.7646C23.4371 3.95589 24.0848 4.21012 24.5778 4.66754C25.0709 5.12497 25.3728 5.75178 25.4233 6.42243L25.4313 6.62243V10.2038L27.9646 12.7371C28.4363 13.2091 28.7139 13.8409 28.7426 14.5077C28.7712 15.1744 28.5488 15.8277 28.1193 16.3384L27.9633 16.5078L25.4299 19.0411V22.6224C25.4302 23.2952 25.1761 23.9432 24.7186 24.4365C24.2612 24.9298 23.6341 25.232 22.9633 25.2824L22.7646 25.2891H19.1846L16.6513 27.8224C16.1792 28.2942 15.5474 28.5718 14.8807 28.6004C14.214 28.629 13.5607 28.4066 13.0499 27.9771L12.8806 27.8224L10.3473 25.2891H6.76461C6.09184 25.2893 5.44385 25.0352 4.95054 24.5778C4.45724 24.1203 4.15507 23.4933 4.10461 22.8224L4.09794 22.6224V19.0411L1.56461 16.5078C1.09287 16.0357 0.815272 15.4039 0.786638 14.7372C0.758003 14.0704 0.98041 13.4172 1.40994 12.9064L1.56461 12.7371L4.09794 10.2038V6.62243C4.09807 5.94989 4.3523 5.30223 4.80972 4.80921C5.26715 4.31618 5.89396 4.0142 6.56461 3.96376L6.76461 3.95576H10.3459L12.8793 1.42243ZM18.8699 10.5998L13.2113 16.2584L10.8539 13.9011C10.6038 13.6511 10.2645 13.5107 9.9108 13.5108C9.55711 13.511 9.21795 13.6516 8.96794 13.9018C8.71793 14.152 8.57755 14.4912 8.57767 14.8449C8.5778 15.1986 8.71842 15.5378 8.96861 15.7878L12.1739 18.9931C12.3101 19.1294 12.4719 19.2375 12.6498 19.3112C12.8278 19.385 13.0186 19.4229 13.2113 19.4229C13.4039 19.4229 13.5947 19.385 13.7727 19.3112C13.9507 19.2375 14.1124 19.1294 14.2486 18.9931L20.7553 12.4851C20.9982 12.2336 21.1325 11.8968 21.1295 11.5472C21.1265 11.1976 20.9862 10.8632 20.739 10.616C20.4918 10.3688 20.1574 10.2286 19.8078 10.2255C19.4582 10.2225 19.1214 10.3569 18.8699 10.5998Z" fill="#EEC644"/>
</svg>
