<svg width="22" height="27" viewBox="0 0 22 27" fill="none" xmlns="http://www.w3.org/2000/svg">
<path d="M12.1658 24.0528C12.5056 24.0531 12.8325 24.1833 13.0796 24.4166C13.3267 24.6499 13.4754 24.9687 13.4953 25.308C13.5153 25.6472 13.4049 25.9813 13.1868 26.2419C12.9686 26.5025 12.6592 26.67 12.3218 26.7101L12.1658 26.7194H9.4991C9.15926 26.7191 8.83239 26.5889 8.58528 26.3556C8.33817 26.1223 8.18946 25.8035 8.16954 25.4642C8.14962 25.125 8.26 24.7909 8.47812 24.5303C8.69624 24.2697 9.00564 24.1022 9.3431 24.0621L9.4991 24.0528H12.1658ZM10.8324 0.0527649C16.7124 0.0527649 21.4991 4.77676 21.4991 10.6301C21.4991 14.6381 19.4698 17.5581 17.7924 19.2888L17.4138 19.6661L17.0538 20.0021L16.7178 20.2954L16.2778 20.6554L15.8404 20.9808C15.5191 21.2074 15.3031 21.5394 15.1071 21.8848L14.8338 22.3701C14.5164 22.9168 14.1444 23.3861 13.3564 23.3861H8.30844C7.52177 23.3861 7.14844 22.9181 6.8311 22.3701L6.67377 22.0928C6.44444 21.6768 6.20977 21.2528 5.82444 20.9808L5.5151 20.7528L5.24977 20.5461L4.9471 20.2954L4.6111 20.0021L4.2511 19.6661L3.8711 19.2888C2.1951 17.5581 0.165771 14.6381 0.165771 10.6301C0.165771 4.77676 4.95244 0.0527649 10.8324 0.0527649ZM13.1084 5.77677C12.8788 5.5472 12.5734 5.40929 12.2493 5.38891C11.9253 5.36854 11.605 5.4671 11.3484 5.6661L11.2231 5.77677L8.56577 8.4341C8.33395 8.66594 8.19466 8.97439 8.17404 9.30161C8.15342 9.62882 8.25288 9.95232 8.45377 10.2114L8.56577 10.3381L10.2804 12.0528L8.55644 13.7768C8.31731 14.0167 8.17847 14.3387 8.16813 14.6773C8.15779 15.0159 8.27672 15.3457 8.50077 15.5998C8.72481 15.8539 9.03717 16.0132 9.3744 16.0453C9.71163 16.0774 10.0484 15.98 10.3164 15.7728L10.4418 15.6621L13.0991 13.0048C13.3309 12.7729 13.4702 12.4645 13.4908 12.1373C13.5115 11.81 13.412 11.4865 13.2111 11.2274L13.0991 11.1008L11.3844 9.3861L13.1084 7.6621C13.3584 7.41206 13.4988 7.07298 13.4988 6.71943C13.4988 6.36588 13.3584 6.0268 13.1084 5.77677Z" fill="#7CC3E7"/>
</svg>
