<svg width="28" height="24" viewBox="0 0 28 24" fill="none" xmlns="http://www.w3.org/2000/svg">
<path fill-rule="evenodd" clip-rule="evenodd" d="M20.0825 0.0810852C20.4346 0.0810682 20.7828 0.155444 21.1042 0.29934C21.4256 0.443236 21.713 0.653406 21.9475 0.916085L22.0825 1.08109L26.7125 7.25484C27.0396 7.69099 27.2152 8.22214 27.2125 8.76736C27.2098 9.31257 27.029 9.84195 26.6975 10.2748L26.5625 10.4373L14.9887 23.1673C14.7126 23.4713 14.3278 23.6543 13.9177 23.6768C13.5076 23.6992 13.1052 23.5593 12.7975 23.2873L12.6762 23.1673L1.10249 10.4361C0.735646 10.0325 0.51083 9.52009 0.462309 8.97689C0.413789 8.43369 0.544226 7.88951 0.833736 7.42733L0.952486 7.25484L5.58249 1.08109C5.79379 0.799258 6.06226 0.565263 6.37031 0.394437C6.67835 0.223611 7.01902 0.119809 7.36999 0.0898352L7.58249 0.0810852H20.0825ZM16.9862 10.0811H10.6787L13.8325 17.9648L16.9862 10.0811ZM23.5075 10.0811H19.6787L16.6712 17.5998L23.5075 10.0811ZM7.98624 10.0811H4.15874L10.9937 17.5998L7.98624 10.0811ZM14.31 2.58109H13.355L10.855 7.58109H16.81L14.31 2.58109ZM20.0825 2.58109H17.105L19.605 7.58109H23.8325L20.0825 2.58109ZM10.56 2.58109H7.58249L3.83249 7.58109H8.05999L10.56 2.58109Z" fill="#7ECE00"/>
</svg>
