<svg width="18" height="13" viewBox="0 0 18 13" fill="none" xmlns="http://www.w3.org/2000/svg">
<path d="M1.76323 12.2197L4.06323 8.21973C2.96323 8.21973 2.02157 7.82806 1.23823 7.04473C0.454899 6.26139 0.0632324 5.31973 0.0632324 4.21973C0.0632324 3.11973 0.454899 2.17806 1.23823 1.39473C2.02157 0.611393 2.96323 0.219727 4.06323 0.219727C5.16323 0.219727 6.1049 0.611393 6.88823 1.39473C7.67157 2.17806 8.06323 3.11973 8.06323 4.21973C8.06323 4.60306 8.0174 4.95723 7.92573 5.28223C7.83407 5.60723 7.69657 5.91973 7.51323 6.21973L4.06323 12.2197H1.76323ZM10.7632 12.2197L13.0632 8.21973C11.9632 8.21973 11.0216 7.82806 10.2382 7.04473C9.4549 6.26139 9.06323 5.31973 9.06323 4.21973C9.06323 3.11973 9.4549 2.17806 10.2382 1.39473C11.0216 0.611393 11.9632 0.219727 13.0632 0.219727C14.1632 0.219727 15.1049 0.611393 15.8882 1.39473C16.6716 2.17806 17.0632 3.11973 17.0632 4.21973C17.0632 4.60306 17.0174 4.95723 16.9257 5.28223C16.8341 5.60723 16.6966 5.91973 16.5132 6.21973L13.0632 12.2197H10.7632Z" fill="#3B613C"/>
</svg>
